
<svg xmlns="http://www.w3.org/2000/svg" version="1.1" xmlns:xlink="http://www.w3.org/1999/xlink" preserveAspectRatio="none" x="0px" y="0px" width="600px" height="600px" viewBox="0 0 600 600">
<defs>
<g id="Layer1_0_FILL">
<path fill="#6691FD" stroke="none" d="
M 358.4 169.35
Q 371.6 182.4 382.3 195.1 392.1 206.8 399.9 218.35 422.8 252.45 427.1 284.5 426.75 310.95 423.05 327.45 423.8 332.65 431.15 331.5
L 466.5 320.35
Q 469.7 319.3 470 311.05 473.7 277.25 457.7 235.5 453.55 226.75 448.85 218.35 442.2 206.5 434.25 195.1 410.05 160.55 373.95 130.25 320.3 83.3 304.45 15.8 303.5103515625 13.428515625 302.5 11.8 300.2111328125 7.9693359375 297.65 8.25 294.647265625 7.2490234375 291.95 11.8 291.005078125 13.3873046875 290.1 15.65 274.25 83.15 220.6 130.05 194.9 151.7 175.2 175.5 162.6 190.65 152.6 206.75 148.95 212.45 145.7 218.35 141.65 225.5 138.05 232.9 137.4 234.1 136.85 235.35 120.9 277.1 124.55 310.9 124.85 319.15 128.05 320.2
L 163.4 331.3
Q 170.75 332.5 171.55 327.25 167.8 310.8 167.45 284.35 172.8 247.75 190.95 218.35 194.5 212.35 198.7 206.75 202.85 201.1 207.55 195.65 220.05 181.45 236.15 169.2 276.7 129.7 296.6 90.65 296.9 89.9 297.25 89.3 297.25 89.35 297.3 89.45 297.55 90 297.85 90.55 317.75 129.75 358.4 169.35 Z"/>
</g>

<g id="Layer0_0_FILL">
<path fill="#6691FD" stroke="none" d="
M 329.35 345.65
Q 341.15 331.95 336.2 311.05 325.3 274.45 303.3 244.1 302.35 242.6 301.3 241.65 300 240.45 298.2 240.1 297.8 240.05 297.3 240.05 295.55 239.9 294.15 240.3 292.45 240.7 291.25 241.8 290.25 242.75 289.3 244.25 267.25 274.65 256.35 311.2 251.45 332.1 263.2 345.8 268.85 353.2 278.15 358.85 283.55 362.25 285.05 369.1 286.75 375.85 285.55 392.4 284.85 395.8 281.55 396.35 220.5 387.15 165.4 362.55 113.7 340.25 71.25 337.85 36.75 340.45 32.3 349.05 25.2 358.85 36.75 363.5 59.9 365.85 75.95 371.85 115.95 396.6 135.6 431.5 160.15 468.95 193.4 488.45
L 225.9 503.3
Q 233.15 506 232.35 511.65 230.85 519.05 222.75 529.45 216.55 536.3 207.7 536.85 200.7 545.45 198.95 553.55 189.2 553.7 182.6 555.85 165.65 562.3 161.65 569.7 157.75 577.1 159.75 582.5
L 432.8 582.35
Q 434.8 576.95 430.9 569.55 426.9 562.15 410 555.7 403.4 553.55 393.6 553.4 391.85 545.3 384.85 536.7 376.05 536.15 369.85 529.3 361.7 518.9 360.2 511.5 359.4 505.85 366.65 503.15
L 399.15 488.3
Q 432.4 468.8 457 431.35 476.6 396.45 516.6 371.7 532.7 365.65 555.8 363.35 567.35 358.65 560.25 348.9 555.8 340.3 521.3 337.7 478.85 340.05 427.15 362.4 372.05 387 311 396.2 307.75 395.65 307 392.25 305.85 375.7 307.5 368.95 309 362.1 314.4 358.65 323.7 353.05 329.35 345.65
M 306.1 324.15
Q 305.15 336.15 296.95 341.95 289.1 335.6 288.45 322.25 290.85 307.25 297.05 299.35 303.55 302 306.1 324.15
M 219.45 554.05
Q 222.45 542.75 238.05 540.35
L 355.15 539.8
Q 367.4 539.95 374 554.35
L 219.45 554.05
M 268.55 466.1
Q 209.25 452.6 188.6 413.7 234.85 435.7 294.9 436.05 350.45 436.5 403.35 415.15 393.65 441.6 345.45 460.55 309.85 474.45 268.55 466.1 Z"/>
</g>
</defs>

<g transform="matrix( 1, 0, 0, 1, 0,0) ">
<use xlink:href="#Layer1_0_FILL"/>
</g>

<g transform="matrix( 1, 0, 0, 1, 0,0) ">
<use xlink:href="#Layer0_0_FILL"/>
</g>
</svg>
